<svg style="fill: #3d3d3d;" xmlns="http://www.w3.org/2000/svg" xmlns:xlink="http://www.w3.org/1999/xlink" viewBox="0 0 512 512"><path d="M455.2,512c-3.3,0-6.5-1.3-8.8-3.7c-4.8-4.9-4.7-12.7,0.1-17.5l35-34.5H130.1c-41,0-74.3-33.3-74.3-74.3V30.4L21.1,64.6c-2.3,2.3-5.4,3.6-8.7,3.6c-3.3,0-6.5-1.3-8.8-3.7C1.2,62.1,0,59,0,55.7c0-3.3,1.3-6.4,3.7-8.7l34.9-34.4C46.7,4.5,57.6,0,69.2,0s22.4,4.4,30.6,12.5l34.9,34.4c2.4,2.3,3.7,5.4,3.7,8.7c0,3.3-1.2,6.4-3.6,8.8c-2.3,2.4-5.5,3.7-8.8,3.7c-3.3,0-6.4-1.3-8.7-3.6L80.5,28.3v353.6c0,27.3,22.2,49.5,49.5,49.5h353.5l-37.1-36.6c-4.9-4.8-4.9-12.7-0.1-17.5c2.3-2.4,5.5-3.7,8.8-3.7c3.3,0,6.4,1.3,8.7,3.6l35.4,34.9c16.9,16.9,16.9,44.4,0,61.3l-35.4,34.9C461.6,510.7,458.5,512,455.2,512z M223,337.5c-6.8,0-12.4-5.6-12.4-12.4v-92c0-13.1-10.7-23.7-23.7-23.7s-23.7,10.7-23.7,23.7v92c0,6.8-5.6,12.4-12.4,12.4s-12.4-5.6-12.4-12.4v-129c0-6.8,5.6-12.4,12.4-12.4c3.1,0,6,1.2,8.3,3.3l3.9,3.6l4.9-2.1c6-2.6,12.4-3.9,19-3.9c11.2,0,22.2,3.9,30.9,11.1l5.3,4.4l5.3-4.4c8.7-7.2,19.6-11.1,30.9-11.1c26.8,0,48.5,21.8,48.5,48.5V325c0,6.8-5.6,12.4-12.4,12.4c-6.8,0-12.4-5.6-12.4-12.4v-91.9c0-13.1-10.7-23.7-23.7-23.7c-13.1,0-23.7,10.7-23.7,23.7v92C235.4,332,229.8,337.5,223,337.5z M499.6,334.5c-6.8,0-12.3-5.6-12.3-12.4V53.7c0-15.9-13-28.9-28.9-28.9H191c-6.8,0-12.4-5.5-12.4-12.3c0-3.3,1.3-6.4,3.6-8.8c2.3-2.3,5.5-3.6,8.8-3.6h267.4C487.9,0,512,24.1,512,53.7v268.4c0,3.3-1.3,6.4-3.6,8.8C506,333.2,502.9,334.5,499.6,334.5L499.6,334.5z M361.3,235.4c-5.1,0-9.7-3.2-11.6-7.9c-1.8-4.7-0.5-10.2,3.2-13.6c0.1-0.1,12.4-11.2,25-25.1c19.9-21.9,24.3-32.5,25.2-36l0.4-1.3l-0.1-1.4c-0.5-7.6-6.8-13.5-14.3-13.6c-0.2,0-0.4,0-0.6,0c-0.2,0-0.4,0-0.6,0c-7.9,0.1-14.3,6.7-14.3,14.6c0,6.8-5.6,12.4-12.4,12.4c-6.8,0-12.4-5.6-12.4-12.4c0-21.7,17.5-39.3,39.1-39.4c0.2,0,0.4,0,0.5,0c0.2,0,0.4,0,0.5,0c21.6,0.1,39.1,17.8,39.1,39.4c0,11.7-7.8,26.3-24.6,46.1l-11.6,13.6h25c6.8,0,12.4,5.6,12.4,12.4s-5.6,12.4-12.4,12.4H361.3z"/></svg>
