<svg style="fill: #df2c32;" xmlns="http://www.w3.org/2000/svg" xmlns:xlink="http://www.w3.org/1999/xlink" x="0px" y="0px" viewBox="0 0 512 512" xml:space="preserve"><path d="M15,491.7c-8.3,0-15-6.7-15-15V111.4c0-3.9,1.6-7.8,4.4-10.6l76.1-76.1c2.8-2.8,6.6-4.4,10.6-4.4h406c8.3,0,15,6.7,15,15v365.4c0,4-1.6,7.8-4.4,10.6l-76.1,76.1c-2.8,2.8-6.6,4.4-10.6,4.4H15z M29.9,461.8h376V126.3H286.8v86.5c0,8.3-6.7,15-15,15H164c-8.3,0-15-6.7-15-15v-86.5H29.9V461.8z M435.9,117.6v323l46.2-46.2l0-323L435.9,117.6z M179,197.9h77.9v-71.6H179V197.9z M51.1,96.4h363.6l46.2-46.2H97.3L51.1,96.4z"/></svg>
