<svg style="fill: #d92a2f;" viewBox="-22 0 512 512.00006" xmlns="http://www.w3.org/2000/svg"><path d="m181.632812 165.292969c1.796876 6.703125 7.855469 11.121093 14.480469 11.121093 1.285157 0 2.589844-.167968 3.890625-.515624l31.835938-8.53125c8.003906-2.148438 12.75-10.371094 10.605468-18.371094-2.144531-8.003906-10.371093-12.75-18.371093-10.605469l-31.835938 8.53125c-8 2.144531-12.75 10.371094-10.605469 18.371094zm0 0"/><path d="m239.875 339.746094c1.285156 0 2.59375-.167969 3.894531-.515625l31.835938-8.53125c8-2.144531 12.75-10.371094 10.605469-18.371094-2.144532-8.003906-10.371094-12.75-18.371094-10.605469l-31.835938 8.53125c-8.003906 2.144532-12.75 10.371094-10.605468 18.371094 1.796874 6.703125 7.855468 11.121094 14.476562 11.121094zm0 0"/><path d="m468.046875 420.621094-7.988281-29.8125c-2.144532-7.988282-10.34375-12.738282-18.335938-10.617188l-48.789062 12.941406-86.722656-323.652343c-1.035157-3.851563-3.554688-7.132813-7.007813-9.121094-3.457031-1.984375-7.558594-2.515625-11.40625-1.472656l-173.558594 47.046875-18.695312-69.589844c-3.277344-12.601562-11.269531-23.148438-22.519531-29.710938-11.269532-6.5742182-24.417969-8.332031-37.019532-4.957031-.023437.007813-.046875.011719-.070312.019531-12.496094 3.367188-22.9375 11.390626-29.410156 22.597657-6.4804692 11.230469-8.203126 24.3125-4.847657 36.835937l2.714844 10.140625c2.144531 8.003907 10.367187 12.75 18.371094 10.609375 8-2.144531 12.75-10.371094 10.605469-18.371094l-2.714844-10.144531c-1.285156-4.78125-.625-9.78125 1.851562-14.070312 2.476563-4.289063 6.472656-7.355469 11.257813-8.636719.015625-.003906.03125-.011719.050781-.015625 4.796875-1.273437 9.804688-.597656 14.09375 1.90625 4.308594 2.511719 7.363281 6.550781 8.609375 11.375.011719.046875.023437.09375.039063.136719l100.539062 375.207031c-17.765625 11.542969-27.019531 33.738281-21.304688 55.363281 3.453126 13.070313 11.769532 23.96875 23.414063 30.691406 7.65625 4.421876 16.148437 6.679688 24.75 6.679688 4.367187 0 8.769531-.582031 13.101563-1.761719 21.375-5.808593 35.804687-24.847656 36.949218-46.011719l190.949219-51.203124 4.117187 15.363281c2.140626 8 10.367188 12.75 18.367188 10.605469 8.003906-2.144532 12.75-10.367188 10.609375-18.371094zm-186.921875-328.847656 36.070312 134.609374-144.621093 38.753907-14.527344 3.890625-36.027344-134.121094zm-81.9375 389.519531c-5.089844 1.382812-10.414062.691406-14.984375-1.949219-4.671875-2.699219-8.015625-7.09375-9.410156-12.378906-2.878907-10.890625 3.5-22.125 14.214843-25.035156 5.089844-1.382813 10.414063-.691407 14.984376 1.949218 4.671874 2.695313 8.011718 7.089844 9.410156 12.375 2.878906 10.894532-3.5 22.125-14.214844 25.039063zm-2.929688-70.019531-30.425781-113.273438 13.839844-3.707031 145.289063-38.933594 38.976562 145.464844-127.550781 33.832031c-4.292969-6.859375-10.207031-12.609375-17.394531-16.757812-7.058594-4.074219-14.824219-6.300782-22.734376-6.625zm0 0"/></svg>