<svg style="fill: #d92a2f;" viewBox="-27 0 512 512" xmlns="http://www.w3.org/2000/svg"><path d="m194.890625 472h-114.890625c-22.054688 0-40.109375-17.945312-40.109375-40v-302c0-22.054688 18.054687-40 40.109375-40h62.890625v10c0 33.085938 26.914063 60 60 60 33.082031 0 60-26.914062 60-60v-10h63c22.054687 0 40 17.945312 40 40v154c0 11.046875 8.953125 20 20 20 11.042969 0 20-8.953125 20-20v-154c0-44.113281-35.890625-80-80-80h-63v-30c0-11.046875-8.957031-20-20-20h-80c-11.046875 0-20 8.953125-20 20v30h-62.890625c-44.113281 0-80 35.886719-80 80v302c0 44.113281 35.886719 80 80 80h114.890625c11.042969 0 20-8.953125 20-20s-8.957031-20-20-20zm-12-432h40v60c0 11.027344-8.972656 20-20 20-11.03125 0-20-8.972656-20-20zm272.222656 313.644531-98.980469 138.257813c-.21875.300781-.441406.597656-.671874.886718-8.988282 11.183594-22.351563 18.144532-36.664063 19.097657-1.132813.074219-2.265625.113281-3.394531.113281-13.140625 0-25.914063-5.066406-35.480469-14.175781l-63.886719-61.34375c-7.964844-7.648438-8.222656-20.308594-.570312-28.277344 7.644531-7.964844 20.308594-8.226563 28.277344-.570313l63.820312 61.277344c3.097656 2.949219 6.703125 3.183594 8.570312 3.066406 1.808594-.121093 5.183594-.796874 7.875-3.917968l98.582032-137.699219c6.425781-8.980469 18.917968-11.050781 27.902344-4.621094 8.980468 6.429688 11.050781 18.921875 4.621093 27.90625zm-317.222656-114.644531c0 11.046875-8.957031 20-20 20h-10c-11.046875 0-20-8.953125-20-20s8.953125-20 20-20h10c11.042969 0 20 8.953125 20 20zm182 0c0 11.046875-8.957031 20-20 20h-112c-11.046875 0-20-8.953125-20-20s8.953125-20 20-20h112c11.042969 0 20 8.953125 20 20zm-182 80c0 11.046875-8.957031 20-20 20h-10c-11.046875 0-20-8.953125-20-20s8.953125-20 20-20h10c11.042969 0 20 8.953125 20 20zm182 0c0 11.046875-8.957031 20-20 20h-112c-11.046875 0-20-8.953125-20-20s8.953125-20 20-20h112c11.042969 0 20 8.953125 20 20zm0 0"/></svg>