<svg style="fill: #555;" xmlns="http://www.w3.org/2000/svg" xmlns:xlink="http://www.w3.org/1999/xlink" x="0px" y="0px" viewBox="0 0 458.2 458.2" xml:space="preserve">
<g><g><path d="M229.1,458.2c-56.5,0-110.3-21.5-151.2-60.5c-42.5-40.4-66.7-94.9-68.2-153.6C8.2,185.6,29.6,129.9,70,87.4c21.1-22.2,46-39.4,74-51.1c27-11.3,55.7-17.1,85.1-17.1c56.5,0,110.3,21.5,151.2,60.5l5.1,4.9V14.3c0-7.9,6.4-14.3,14.3-14.3c7.9,0,14.3,6.4,14.3,14.3V118c0,6.1-3.9,11.6-9.7,13.5L301,166h-0.1l-0.5,0.2c-1.4,0.5-2.9,0.7-4.5,0.7c-6.1,0-11.6-3.9-13.5-9.8l0-0.1c-2.4-7.4,1.6-15.4,9.1-17.9l81.1-27l-3.2-3.5c-36.5-39.9-88.5-62.8-142.7-62.8c-10.8,0-21.7,0.9-32.4,2.7C89.2,66.4,18.1,166.5,36,271.6c15.9,93.3,96,161.1,190.5,161.1c0,0,0,0,0,0c10.9,0,21.8-0.9,32.6-2.8c50.9-8.7,95.5-36.6,125.4-78.8c29.9-42.1,41.6-93.4,32.9-144.3l0-0.3c-0.6-3.8,0.3-7.5,2.5-10.6c2.2-3.1,5.5-5.1,9.3-5.7c0.8-0.1,1.5-0.2,2.3-0.2c7,0,12.9,5.1,14.1,12c5.7,33.5,3.4,68.3-6.5,100.7c-9.9,32.4-27.5,62.6-50.9,87.2c-21.1,22.2-46,39.4-74,51.1C287.1,452.4,258.5,458.2,229.1,458.2C229.1,458.2,229.1,458.2,229.1,458.2z"/></g></g></svg>
