<svg style="fill: #3d3d3d;" viewBox="0 0 512 512" xmlns="http://www.w3.org/2000/svg" xmlns:xlink="http://www.w3.org/1999/xlink"><g><path d="M411.9,106.2c-2.4,0-4.8-0.9-6.6-2.5C363.9,67.4,310.8,47.3,256,47.3c-51.7,0-102.2,18.1-142.3,51.1c-1.8,1.5-4,2.3-6.3,2.3c-3,0-5.8-1.3-7.7-3.7c-3.5-4.3-2.9-10.6,1.4-14.1c43.7-35.9,98.7-55.6,155-55.6c59.7,0,117.4,21.8,162.6,61.4c4.1,3.6,4.5,10,0.9,14.1C417.6,105,414.8,106.2,411.9,106.2z"/></g><g><path d="M104.7,106.2c-5.5,0-10-4.5-10-10V42.9c0-5.5,4.5-10,10-10s10,4.5,10,10v43.3H158c5.5,0,10,4.5,10,10s-4.5,10-10,10H104.7z"/></g><path d="M408.7,405.8h-53.3c-5.5,0-10,4.5-10,10s4.5,10,10,10h29.3c-37.1,25.2-81.1,38.9-126,38.9c-54.9,0-107.9-20-149.3-56.4c-1.8-1.6-4.2-2.5-6.6-2.5c-2.9,0-5.6,1.2-7.5,3.4c-1.8,2-2.6,4.6-2.5,7.3c0.2,2.7,1.4,5.1,3.4,6.9c45.1,39.6,102.8,61.4,162.5,61.4c50.1,0,99.2-15.6,140.1-44.3v28.7c0,5.5,4.5,10,10,10s10-4.5,10-10v-53.3C418.7,410.3,414.2,405.8,408.7,405.8z"/>
<g><path d="M106.7,250c-26.1,0-47.3-21.2-47.3-47.3s21.2-47.3,47.3-47.3s47.3,21.2,47.3,47.3S132.8,250,106.7,250z M106.7,175.3c-15.1,0-27.3,12.3-27.3,27.3c0,15.1,12.3,27.3,27.3,27.3c15.1,0,27.3-12.3,27.3-27.3C134,187.6,121.7,175.3,106.7,175.3z"/></g><g><path d="M197.3,356.7c-5.5,0-10-4.5-10-10V336c0-18-14.7-32.7-32.7-32.7h-96C40.7,303.3,26,318,26,336v10.7c0,5.5-4.5,10-10,10s-10-4.5-10-10V336c0-29,23.6-52.7,52.7-52.7h96c29,0,52.7,23.6,52.7,52.7v10.7C207.3,352.2,202.8,356.7,197.3,356.7z"/></g><g><path d="M405.3,250c-26.1,0-47.3-21.2-47.3-47.3s21.2-47.3,47.3-47.3s47.3,21.2,47.3,47.3S431.4,250,405.3,250z M405.3,175.3c-15.1,0-27.3,12.3-27.3,27.3c0,15.1,12.3,27.3,27.3,27.3c15.1,0,27.3-12.3,27.3-27.3C432.7,187.6,420.4,175.3,405.3,175.3z"/></g><g><path d="M496,356.7c-5.5,0-10-4.5-10-10V336c0-18-14.7-32.7-32.7-32.7h-96c-18,0-32.7,14.7-32.7,32.7v10.7c0,5.5-4.5,10-10,10s-10-4.5-10-10V336c0-29,23.6-52.7,52.7-52.7h96c29,0,52.7,23.6,52.7,52.7v10.7C506,352.2,501.5,356.7,496,356.7z"/></g></svg>
