<svg style="fill: #df2c32;" enable-background="new 0 0 512 512" viewBox="0 0 512 512" xmlns="http://www.w3.org/2000/svg"><path d="m497 433.8h-81.399v-418.8c0-8.284-6.716-15-15-15s-15 6.716-15 15v185.358l-67.627-154.572c-11.234-25.675-41.984-45.786-70.007-45.786h-144.6c-30.419 0-55.167 24.747-55.167 55.166v202.356c-27.14 3.437-48.2 26.654-48.2 54.711v96.399c0 30.42 24.748 55.168 55.167 55.168h10.913c6.753 27.63 31.707 48.2 61.387 48.2 29.679 0 54.631-20.57 61.384-48.2h102.163c6.753 27.63 31.707 48.2 61.387 48.2 29.679 0 54.631-20.57 61.384-48.2h83.215c8.284 0 15-6.716 15-15s-6.716-15-15-15zm-393.633-403.8h144.6c16.17 0 36.04 12.996 42.522 27.812l87.176 199.255h-35.118l-75.889-75.887 12.116-12.116c5.858-5.857 5.858-15.356 0-21.213-5.857-5.857-15.355-5.857-21.213 0l-22.718 22.718c-.002.002-.003.003-.005.005s-.003.003-.005.005l-22.717 22.718c-5.858 5.857-5.858 15.355 0 21.213 2.929 2.929 6.768 4.393 10.606 4.393 3.839 0 7.678-1.465 10.606-4.393l12.115-12.116 54.676 54.674h-157.652v-113.535c0-8.284-6.716-15-15-15s-15 6.716-15 15v113.533h-34.267v-201.9c0-13.877 11.29-25.166 25.167-25.166zm-73.367 378.633v-96.399c0-13.877 11.29-25.167 25.167-25.167h330.434l-.002 107.986c-9.655-5.986-21.027-9.453-33.198-9.453-29.68 0-54.634 20.57-61.387 48.2h-102.163c-6.753-27.63-31.705-48.2-61.384-48.2-29.68 0-54.634 20.57-61.387 48.2h-10.913c-13.877 0-25.167-11.29-25.167-25.167zm97.467 73.367c-18.298 0-33.185-14.88-33.199-33.174 0-.01.001-.018.001-.026 0-.009-.001-.017-.001-.026.014-18.294 14.901-33.174 33.199-33.174 18.305 0 33.197 14.894 33.197 33.2s-14.893 33.2-33.197 33.2zm224.933 0c-18.307 0-33.2-14.894-33.2-33.2s14.894-33.2 33.2-33.2c18.305 0 33.197 14.894 33.197 33.2s-14.892 33.2-33.197 33.2z"/></svg>