<svg style="fill: #d92a2f;" xmlns="http://www.w3.org/2000/svg" xmlns:xlink="http://www.w3.org/1999/xlink" viewBox="0 0 512 512"><g><path d="M408.5,63.2C367.7,22.4,313.6,0,256,0c-57.6,0-111.7,22.4-152.5,63.2c-40.8,40.7-63.2,94.9-63.2,152.4c0,57.6,22.4,111.7,63.2,152.5L241.4,506c3.9,3.9,9.1,6,14.6,6c5.5,0,10.7-2.1,14.6-6l137.8-137.8c40.8-40.8,63.2-94.9,63.2-152.4C471.7,158.1,449.2,103.9,408.5,63.2z M430.2,215.6c0,46.6-18.1,90.4-51,123.2L256,462.1L132.8,338.9c-32.9-32.9-51-76.6-51-123.2c0-46.6,18.1-90.4,51-123.2c32.9-32.9,76.6-51,123.2-51s90.4,18.1,123.2,51C412.1,125.3,430.2,169,430.2,215.6z"/><path d="M256,116.6c-54.6,0-99.1,44.5-99.1,99.1s44.5,99.1,99.1,99.1s99.1-44.5,99.1-99.1S310.6,116.6,256,116.6z M297.2,256.2c-0.4,0.3-0.7,0.6-1.1,1c-13.9,13.4-29.4,16.2-40,16.2c-31.9,0-57.8-25.9-57.8-57.8s25.9-57.8,57.8-57.8c23.8,0,44.2,13.6,53.2,35.5C318.3,215.4,313.7,239.4,297.2,256.2z"/></g></svg>
