<svg style="fill: #d92a2f;" xmlns="http://www.w3.org/2000/svg" xmlns:xlink="http://www.w3.org/1999/xlink" viewBox="0 0 512 512">
<g><path d="M417.6,194.3H403v-45.8C403,66.7,337,0.3,256,0.3c-81,0-147,66.5-147,148.2v45.8H94.4c-17.8,0-32.4,14.5-32.4,32.4v252.8c0,17.8,14.5,32.4,32.4,32.4h323.3c17.8,0,32.4-14.5,32.4-32.4V226.6C450,208.8,435.5,194.3,417.6,194.3z M103.2,470.5V235.4h305.6l0,235.1H103.2z M361.8,194.3H150.2v-45.8c0-59,47.5-107,105.8-107s105.8,48,105.8,107V194.3z"/><path d="M253.1,329.5c-11.4,0-20.6,9.2-20.6,20.6v41.1c0,11.4,9.2,20.6,20.6,20.6c11.4,0,20.6-9.2,20.6-20.6V350c0-5.5-2.1-10.7-6-14.6C263.7,331.6,258.6,329.5,253.1,329.5z"/></g></svg>
