<svg style="fill: #3d3d3d;" xmlns="http://www.w3.org/2000/svg" xmlns:xlink="http://www.w3.org/1999/xlink" viewBox="0 0 512 512"><path d="M256,504c-66.2,0-128.5-25.8-175.4-72.6C33.8,384.5,8,322.2,8,256c0-66.2,25.8-128.5,72.6-175.4C127.5,33.8,189.8,8,256,8c79.8,0,155.2,38.5,201.7,103c3.9,5.4,2.7,12.9-2.7,16.8c-2.1,1.5-4.5,2.3-7,2.3c-3.9,0-7.5-1.9-9.7-5C396.2,66.8,328.1,32,256,32C132.5,32,32,132.5,32,256c0,123.5,100.5,224,224,224c72.1,0,140.2-34.8,182.3-93c2.3-3.1,5.9-5,9.7-5c2.5,0,4.9,0.8,7,2.3c5.4,3.9,6.6,11.4,2.7,16.8C411.2,465.5,335.8,504,256,504z M256,383c-70,0-127-57-127-127c0-70,57-127,127-127c34.3,0,66.5,13.7,90.6,38.7c4.6,4.8,4.5,12.4-0.3,17c-2.3,2.2-5.2,3.4-8.3,3.4c-3.3,0-6.3-1.3-8.6-3.7C309.8,164.1,283.7,153,256,153c-56.8,0-103,46.2-103,103c0,56.8,46.2,103,103,103c27.7,0,53.8-11.1,73.4-31.3c2.3-2.4,5.3-3.7,8.6-3.7c3.1,0,6.1,1.2,8.3,3.4c4.8,4.6,4.9,12.2,0.3,17C322.5,369.3,290.3,383,256,383z M492,326c-3.2,0-6.2-1.2-8.5-3.5L459.9,299c-7.1-7.1-12.4-15.9-15.3-25.4l-1.7-5.7H256c-6.6,0-12-5.4-12-12c0-6.6,5.4-12,12-12h186.9l1.7-5.7c2.9-9.5,8.2-18.3,15.3-25.4l23.6-23.5c2.3-2.3,5.3-3.5,8.5-3.5c3.2,0,6.2,1.3,8.5,3.5c4.7,4.7,4.6,12.3,0,17L476.8,230c-7,7-10.8,16.2-10.8,26c0,9.8,3.9,19.1,10.8,26l23.6,23.5c2.3,2.3,3.5,5.3,3.5,8.5s-1.2,6.2-3.5,8.5C498.2,324.7,495.2,326,492,326z"/></svg>
