<svg style="fill: #d92a2f;" xmlns="http://www.w3.org/2000/svg" xmlns:xlink="http://www.w3.org/1999/xlink" viewBox="0 0 512 512" ><g><path d="M491.7,309.1l-228.2-86.9c-3.8-1.7-7.9-2.5-12.4-2.5c-17.4,0-31.5,14.1-31.5,31.5c0,4.2,0.8,8.3,2.1,11.4l87.3,229.1c4.6,12.1,16.4,20.3,29.4,20.3c13.7,0,25.7-8.7,30-21.7l30-91.7l91.7-30c13-4.2,21.8-16.3,21.8-30C512,325.6,503.8,313.7,491.7,309.1z M362.7,375.8l-24.8,75.6L268,268l183.5,69.9l-75.6,24.8C369.6,364.7,364.7,369.6,362.7,375.8z"/><path d="M247.5,428.6c-0.2,0-0.4,0-0.6,0l-0.1,0c-3.8,0.2-7.9,0.4-11.7,0.4c-106.9,0-193.9-87-193.9-193.9c0-106.9,87-193.9,193.9-193.9c106.9,0,193.9,87,193.9,193.9c0,3.7-0.2,7.6-0.4,11.3l0,0.4c-0.3,5.5,1.6,10.8,5.3,14.8c3.7,4.1,8.8,6.5,14.2,6.7c0.4,0,0.8,0,1.2,0c0,0,0,0,0,0c10.9,0,19.9-8.6,20.5-19.6c0.2-4.4,0.4-9.2,0.4-13.8C470.1,105.5,364.7,0,235.1,0C105.5,0,0,105.5,0,235.1c0,129.6,105.5,235.1,235.1,235.1c4.6,0,9.4-0.2,13.8-0.4c11.3-0.6,20.1-10.3,19.5-21.6C267.9,437.3,258.5,428.6,247.5,428.6z"/><path d="M235.1,145.6c40.8,0,76.4,27.3,86.6,66.4c2.4,9.1,10.6,15.4,20,15.4c1.7,0,3.5-0.2,5.2-0.7c11-2.9,17.6-14.1,14.7-25.1c-14.9-57.2-66.9-97.2-126.4-97.2c-72,0-130.7,58.6-130.7,130.7c0,59.3,39.9,111.2,97.1,126.4c1.7,0.5,3.5,0.7,5.3,0.7c9.3,0,17.5-6.3,19.9-15.3c1.4-5.3,0.7-10.9-2.1-15.6c-2.8-4.8-7.2-8.2-12.5-9.6c-39.2-10.4-66.5-46-66.5-86.6C145.6,185.7,185.7,145.6,235.1,145.6z"/></g></svg>
