<svg style="fill: #555;" xmlns="http://www.w3.org/2000/svg" xmlns:xlink="http://www.w3.org/1999/xlink" x="0px" y="0px" viewBox="0 0 296.1 296.1" xml:space="preserve">
<path d="M295.1,96.6c-0.3-1.2-1-3.4-3.4-5L152.3,1.3C151.1,0.4,149.6,0,148,0c-1.5,0-3,0.4-4.3,1.3L4.4,91.6c-1.8,1.1-3,2.9-3.4,5c-0.4,2.1-0.1,4.2,1.1,5.9c1.5,2.3,3.9,3.6,6.6,3.6c1.5,0,3-0.4,4.3-1.3l20.9-13.6v196.9c0,4.4,3.5,7.9,7.9,7.9h138.8c8.4,0,15.3-6.9,15.3-15.3v-44.7c0-8.4-6.9-15.3-15.3-15.3h-31.4V178c0-8.4-6.9-15.3-15.3-15.3h-22.3v-42.8c0-8.4-6.9-15.3-15.3-15.3H49.7V81.1L148,17.3l98.3,63.8v207.1c0,4.4,3.5,7.9,7.9,7.9c4.4,0,7.9-3.5,7.9-7.9V91.3l20.9,13.6c1.3,0.8,2.7,1.3,4.3,1.3c2.7,0,5.2-1.3,6.6-3.6C295.5,100.2,295.3,97.8,295.1,96.6z M103.8,178.5h29.7v50.2c0,4.4,3.5,7.9,7.9,7.9h38.8v43.6H49.7V120.4h46.1v50.2C95.9,175,99.4,178.5,103.8,178.5z"/>
</svg>
